<svg width="13px" height="17px" viewBox="0 0 13 17" version="1.1" xmlns="http://www.w3.org/2000/svg" xmlns:xlink="http://www.w3.org/1999/xlink">
    <g stroke="none" stroke-width="1" fill="none" fill-rule="evenodd">
        <g transform="translate(-172.000000, -163.000000)" fill="#fd8678" fill-rule="nonzero">
            <g transform="translate(54.000000, 126.000000)">
                <path d="M124.594723,37.3838866 C123.890723,36.7598866 122.562723,36.8878866 122.098723,37.8318866 C120.994723,40.8398866 122.354723,42.7118866 123.890723,44.6958866 C122.114723,44.8078866 120.370723,45.1758866 118.738723,46.1198866 C117.810723,46.6318866 117.762723,48.0238866 118.562723,48.6958866 C121.378723,51.2078866 126.226723,52.7438866 129.826723,50.9838866 C130.034723,51.2238866 130.194723,51.3998866 130.370723,51.5918866 C131.122723,52.2478866 132.562723,51.6558866 132.354723,50.5998866 C131.986723,48.2798866 130.706723,46.2158866 129.666723,44.1678866 C128.354723,41.6078866 126.770723,39.2558866 124.594723,37.3838866 Z" id="Shape" transform="translate(126.000000, 45.000000) rotate(45.000000) translate(-126.000000, -45.000000) "></path>
            </g>
        </g>
    </g>
</svg>